<svg width="24" height="24" viewBox="0 0 24 24" fill="none" xmlns="http://www.w3.org/2000/svg">
<path d="M8.49933 19.4962C8.40079 19.4967 8.30314 19.4774 8.21213 19.4397C8.12112 19.4019 8.03857 19.3463 7.96933 19.2762C7.82888 19.1356 7.75 18.945 7.75 18.7462C7.75 18.5475 7.82888 18.3568 7.96933 18.2162L14.1893 11.9962L7.96933 5.77621C7.82888 5.63559 7.75 5.44497 7.75 5.24622C7.75 5.04747 7.82888 4.85684 7.96933 4.71622C8.11289 4.57752 8.30472 4.5 8.50433 4.5C8.70395 4.5 8.89577 4.57752 9.03934 4.71622L15.7893 11.4662C15.9298 11.6068 16.0087 11.7975 16.0087 11.9962C16.0087 12.195 15.9298 12.3856 15.7893 12.5262L9.03934 19.2762C8.96857 19.3471 8.88434 19.4031 8.7916 19.4409C8.69885 19.4786 8.59947 19.4975 8.49933 19.4962Z" fill="#969696"/>
</svg>
