<svg width="32" height="32" viewBox="0 0 32 32" fill="none" xmlns="http://www.w3.org/2000/svg">
<path d="M16.0001 29.3333C23.3634 29.3333 29.3334 23.3633 29.3334 16C29.3334 8.63663 23.3634 2.66663 16.0001 2.66663C8.63675 2.66663 2.66675 8.63663 2.66675 16C2.66675 23.3646 8.63541 29.3333 16.0001 29.3333Z" fill="#FC9F35"/>
<path d="M22 13.3334C22 11.5947 20.8853 10.1127 19.3333 9.56204V7.33337H16.6667V9.33337H14.6667V7.33337H12V9.33337H10V12H12V20H10V22.6667H12V24.6667H14.6667V22.6667H16.6667V24.6667H19.3333V22.438C20.8853 21.888 22 20.4054 22 18.6667C22 17.6434 21.6133 16.708 20.9787 16C21.6133 15.292 22 14.3567 22 13.3334ZM14.6667 12H18C18.7353 12 19.3333 12.598 19.3333 13.3334C19.3333 14.0687 18.7353 14.6667 18 14.6667H14.6667V12ZM18 20H14.6667V17.3334H18C18.7353 17.3334 19.3333 17.9314 19.3333 18.6667C19.3333 19.402 18.7353 20 18 20Z" fill="#FAE56B"/>
<path d="M14.6667 9.33337H12V12H14.6667V9.33337Z" fill="#FFECAA"/>
<path d="M14.6667 20H12V22.6667H14.6667V20Z" fill="#FFECAA"/>
</svg>
