<svg width="32" height="32" viewBox="0 0 32 32" fill="none" xmlns="http://www.w3.org/2000/svg">
<path d="M6 7.33337H30V25.3334C30 26.806 28.806 28 27.3333 28H6V7.33337Z" fill="#FB348C"/>
<path d="M27.3333 28H4.66667C3.194 28 2 26.806 2 25.3333V4H24.6667V25.3333C24.6667 26.806 25.8607 28 27.3333 28Z" fill="#FFECAA"/>
<path d="M2 25.3334V7.33337H24.6667V25.3334C24.6667 26.806 25.8607 28 27.3333 28H4.66667C3.194 28 2 26.806 2 25.3334Z" fill="#FFDD64"/>
<path d="M22 10H4.66663V14.6667H22V10Z" fill="#FC9F35"/>
<path d="M12 17.3334H4.66663V20H12V17.3334Z" fill="#FC9F35"/>
<path d="M12 22.6666H4.66663V25.3333H12V22.6666Z" fill="#FC9F35"/>
<path d="M22 17.3334H14.6666V20H22V17.3334Z" fill="#FC9F35"/>
<path d="M22 22.6666H14.6666V25.3333H22V22.6666Z" fill="#FC9F35"/>
</svg>
