<svg width="32" height="32" viewBox="0 0 32 32" fill="none" xmlns="http://www.w3.org/2000/svg">
<path d="M26.6666 6.66663H5.33325V25.3333H26.6666V6.66663Z" fill="#FFDD64"/>
<path d="M27.9999 4H25.3333V28H27.9999V4Z" fill="#FFDD64"/>
<path d="M27.9947 22.6666H25.3394V25.3333H27.9947V22.6666Z" fill="#FC9F35"/>
<path d="M27.9947 17.3334H25.3394V20H27.9947V17.3334Z" fill="#FC9F35"/>
<path d="M27.9947 12H25.3394V14.6667H27.9947V12Z" fill="#FC9F35"/>
<path d="M27.9947 6.66663H25.3394V9.33329H27.9947V6.66663Z" fill="#FC9F35"/>
<path d="M27.9886 20H25.3333V22.6667H27.9886V20Z" fill="#FFECAA"/>
<path d="M27.9886 14.6666H25.3333V17.3333H27.9886V14.6666Z" fill="#FFECAA"/>
<path d="M27.9886 9.33337H25.3333V12H27.9886V9.33337Z" fill="#FFECAA"/>
<path d="M6.66667 4H4V28H6.66667V4Z" fill="#FFDD64"/>
<path d="M6.65533 22.6666H4V25.3333H6.65533V22.6666Z" fill="#FC9F35"/>
<path d="M6.65533 17.3334H4V20H6.65533V17.3334Z" fill="#FC9F35"/>
<path d="M6.65533 12H4V14.6667H6.65533V12Z" fill="#FC9F35"/>
<path d="M6.65533 20H4V22.6667H6.65533V20Z" fill="#FFECAA"/>
<path d="M6.65533 14.6666H4V17.3333H6.65533V14.6666Z" fill="#FFECAA"/>
<path d="M6.65533 9.33337H4V12H6.65533V9.33337Z" fill="#FFECAA"/>
<path d="M6.65533 6.66663H4V9.33329H6.65533V6.66663Z" fill="#FC9F35"/>
<path d="M19.6667 9.33337C18.746 9.33337 18 10.0794 18 11C18 11.9207 18.746 12.6667 19.6667 12.6667C20.5873 12.6667 21.3333 11.9207 21.3333 11C21.3333 10.0794 20.5873 9.33337 19.6667 9.33337Z" fill="#FB348C"/>
<path d="M14.5141 14.6667L6.66675 25.3334H22.6667L14.5141 14.6667Z" fill="#FB348C"/>
<path d="M13.3335 25.3334H25.3335L19.2188 17.3334L13.3335 25.3334Z" fill="#FB348C"/>
<path d="M13.3335 25.3333H22.6668L17.9108 19.1113L13.3335 25.3333Z" fill="#D72573"/>
</svg>
