<svg width="32" height="32" viewBox="0 0 32 32" fill="none" xmlns="http://www.w3.org/2000/svg">
<path d="M25.9733 6.66663C25.9733 6.66663 23.3066 5.33329 19.9733 4.66663L19.1566 6.29929C18.1473 6.10729 17.0913 5.99996 16 5.99996C14.9 5.99996 13.8353 6.10863 12.8186 6.30329L12 4.66663C8.66664 5.33329 5.99997 6.66663 5.99997 6.66663C0.666641 12.6666 1.33331 23.3333 1.33331 23.3333C3.33331 25.3333 8.66664 27.3333 8.66664 27.3333C9.29664 26.7033 9.92664 25.6273 10.416 24.6666C8.71864 23.89 7.99997 23.3333 7.99997 23.3333L8.49264 22.8406C10.592 23.986 13.186 24.6666 16 24.6666C18.8066 24.6666 21.3933 23.9893 23.49 22.85L23.9733 23.3333C23.9733 23.3333 23.2546 23.89 21.5573 24.6666C22.0466 25.6266 22.6766 26.7033 23.3066 27.3333C23.3066 27.3333 28.64 25.3333 30.64 23.3333C30.64 23.3333 31.3066 12.6666 25.9733 6.66663Z" fill="#FB348C"/>
<path d="M6.00002 18.6667C5.33335 14 8.66669 9.33334 8.66669 9.33334L13.3334 7.33334L12.8187 6.30334C10.9574 6.66001 9.26002 7.31668 7.83335 8.20468C7.08802 9.14735 4.01669 13.4187 4.47935 19.196C5.37869 20.6493 6.77002 21.9007 8.49269 22.8407L9.33335 22C7.21669 20.7913 6.00002 18.6667 6.00002 18.6667Z" fill="#D72573"/>
<path d="M27.5206 19.196C27.9832 13.4187 24.9119 9.14732 24.1666 8.20465C22.7339 7.31265 21.0279 6.65465 19.1566 6.29932L18.6399 7.33332L23.3066 9.33332C23.3066 9.33332 26.6399 14 25.9732 18.6666C25.9732 18.6666 24.7566 20.7913 22.6399 22L23.4899 22.85C25.2206 21.9093 26.6186 20.6547 27.5206 19.196Z" fill="#D72573"/>
<path d="M11.3334 20C12.8062 20 14.0001 18.6569 14.0001 17C14.0001 15.3431 12.8062 14 11.3334 14C9.86066 14 8.66675 15.3431 8.66675 17C8.66675 18.6569 9.86066 20 11.3334 20Z" fill="#FF8ABE"/>
<path d="M20.6667 20C22.1394 20 23.3333 18.6569 23.3333 17C23.3333 15.3431 22.1394 14 20.6667 14C19.1939 14 18 15.3431 18 17C18 18.6569 19.1939 20 20.6667 20Z" fill="#FF8ABE"/>
</svg>
