<svg width="49" height="48" viewBox="0 0 49 48" fill="none" xmlns="http://www.w3.org/2000/svg">
<path d="M45.2 13H11.2V41H45.2V13Z" fill="#FB348C"/>
<path d="M47.192 37H43.209V41H47.192V37Z" fill="#D72573"/>
<path d="M47.192 29H43.209V33H47.192V29Z" fill="#D72573"/>
<path d="M47.192 21H43.209V25H47.192V21Z" fill="#D72573"/>
<path d="M47.192 13H43.209V17H47.192V13Z" fill="#D72573"/>
<path d="M47.183 33H43.2V37H47.183V33Z" fill="#FF8ABE"/>
<path d="M47.183 25H43.2V29H47.183V25Z" fill="#FF8ABE"/>
<path d="M47.183 17H43.2V21H47.183V17Z" fill="#FF8ABE"/>
<path d="M13.183 37H9.19995V41H13.183V37Z" fill="#D72573"/>
<path d="M13.183 33H9.19995V37H13.183V33Z" fill="#FF8ABE"/>
<path d="M13.183 29H9.19995V33H13.183V29Z" fill="#2100C4"/>
<path d="M13.183 25H9.19995V29H13.183V25Z" fill="#6C19FF"/>
<path d="M13.183 21H9.19995V25H13.183V21Z" fill="#2100C4"/>
<path d="M13.183 17H9.19995V21H13.183V17Z" fill="#6C19FF"/>
<path d="M13.183 13H9.19995V17H13.183V13Z" fill="#2100C4"/>
<path d="M37.2 5H3.19995V33H37.2V5Z" fill="#FFDD64"/>
<path d="M26.7 19L16.2 11V27L26.7 19Z" fill="#FFECAA"/>
<path d="M39.192 29H35.209V33H39.192V29Z" fill="#FC9F35"/>
<path d="M39.192 21H35.209V25H39.192V21Z" fill="#FC9F35"/>
<path d="M39.192 13H35.209V17H39.192V13Z" fill="#FC9F35"/>
<path d="M39.192 5H35.209V9H39.192V5Z" fill="#FC9F35"/>
<path d="M39.183 25H35.2V29H39.183V25Z" fill="#FAE56B"/>
<path d="M39.183 17H35.2V21H39.183V17Z" fill="#FAE56B"/>
<path d="M39.183 9H35.2V13H39.183V9Z" fill="#FAE56B"/>
<path d="M5.18295 29H1.19995V33H5.18295V29Z" fill="#FC9F35"/>
<path d="M5.18295 25H1.19995V29H5.18295V25Z" fill="#FAE56B"/>
<path d="M5.18295 21H1.19995V25H5.18295V21Z" fill="#FC9F35"/>
<path d="M5.18295 13H1.19995V17H5.18295V13Z" fill="#FC9F35"/>
<path d="M5.18295 17H1.19995V21H5.18295V17Z" fill="#FAE56B"/>
<path d="M5.18295 9H1.19995V13H5.18295V9Z" fill="#FAE56B"/>
<path d="M5.18295 5H1.19995V9H5.18295V5Z" fill="#FC9F35"/>
</svg>
