<svg width="49" height="48" viewBox="0 0 49 48" fill="none" xmlns="http://www.w3.org/2000/svg">
<path d="M44.8 9H4.80005V39H44.8V9Z" fill="#FFDD64"/>
<path d="M47.8 29H37.8C35.039 29 32.8 26.761 32.8 24C32.8 21.239 35.039 19 37.8 19H47.8V29Z" fill="#D72573"/>
<path d="M44.8 19H37.988C35.585 19 33.375 20.61 32.903 22.966C32.26 26.18 34.701 29 37.8 29H44.8V19Z" fill="#FB348C"/>
<path d="M36.8 26C37.9046 26 38.8 25.1046 38.8 24C38.8 22.8954 37.9046 22 36.8 22C35.6955 22 34.8 22.8954 34.8 24C34.8 25.1046 35.6955 26 36.8 26Z" fill="#D72573"/>
</svg>
