<svg width="49" height="48" viewBox="0 0 49 48" fill="none" xmlns="http://www.w3.org/2000/svg">
<path d="M45.4 33.3113V14.6888C45.4 12.9526 44.4663 11.3363 42.9625 10.4663L26.8375 1.15506C25.3338 0.288809 23.4663 0.288809 21.9625 1.15506L5.83752 10.4663C4.33377 11.3363 3.40002 12.9526 3.40002 14.6888V33.3076C3.40002 35.0438 4.33377 36.6601 5.83752 37.5301L21.9625 46.8413C22.7125 47.2763 23.5563 47.4938 24.4 47.4938C25.2438 47.4938 26.0875 47.2763 26.8375 46.8413L42.9625 37.5301C44.4663 36.6638 45.4 35.0476 45.4 33.3113ZM41.8375 35.5838L25.7125 44.8951C24.9025 45.3638 23.8975 45.3638 23.0875 44.8951L6.96252 35.5838C6.15252 35.1151 5.65002 34.2451 5.65002 33.3113V14.6888C5.65002 13.7551 6.15252 12.8813 6.96252 12.4163L23.0875 3.10506C23.8975 2.63631 24.9025 2.63631 25.7125 3.10506L41.8375 12.4163C42.6475 12.8851 43.15 13.7551 43.15 14.6888V33.3076C43.15 34.2451 42.6475 35.1151 41.8375 35.5838Z" fill="#FFDD64"/>
<path d="M18.025 11.625C17.4025 11.625 16.9 12.1275 16.9 12.75V29.8988L10.8063 16.0463C10.5925 15.5588 10.0675 15.2888 9.54627 15.3975C9.02127 15.51 8.65002 15.9675 8.65002 16.5V31.5C8.65002 32.1225 9.15252 32.625 9.77502 32.625C10.3975 32.625 10.9 32.1225 10.9 31.5V21.8512L16.9938 35.7038C17.1775 36.1162 17.5863 36.375 18.025 36.375C18.1 36.375 18.1788 36.3675 18.2575 36.3525C18.7788 36.24 19.15 35.7825 19.15 35.25V12.75C19.15 12.1275 18.6475 11.625 18.025 11.625Z" fill="#FB348C"/>
<path d="M40.3375 15.0149L24.9625 6.13869C24.6138 5.93619 24.1863 5.93619 23.8375 6.13869C23.4888 6.34119 23.275 6.71244 23.275 7.11369V40.8899C23.275 41.5124 23.7775 42.0149 24.4 42.0149C25.0225 42.0149 25.525 41.5124 25.525 40.8899V25.1249H30.025C30.6475 25.1249 31.15 24.6224 31.15 23.9999C31.15 23.3774 30.6475 22.8749 30.025 22.8749H25.525V9.05994L34.915 14.4824C34.9075 14.5312 34.9 14.5762 34.9 14.6249V33.3749C34.9 33.9974 35.4025 34.4999 36.025 34.4999C36.6475 34.4999 37.15 33.9974 37.15 33.3749V15.7724L39.2125 16.9649C39.7525 17.2762 40.4388 17.0924 40.75 16.5524C41.0613 16.0124 40.8738 15.3262 40.3375 15.0149Z" fill="#FB348C"/>
</svg>
