<svg width="32" height="32" viewBox="0 0 32 32" fill="none" xmlns="http://www.w3.org/2000/svg">
<path d="M6.66667 4H4V28H6.66667V4Z" fill="#FB348C"/>
<path d="M28.6667 25.3334H4V28H28.6667V25.3334Z" fill="#FB348C"/>
<path d="M6.66667 25.3334H4V28H6.66667V25.3334Z" fill="#D72573"/>
<path d="M9.33333 5.33333C8.59667 5.33333 8 5.93 8 6.66667C8 7.40333 8.59667 8 9.33333 8C10.07 8 10.6667 7.40333 10.6667 6.66667C10.6667 5.93 10.07 5.33333 9.33333 5.33333ZM21.3333 5.33333C20.5967 5.33333 20 5.93 20 6.66667C20 7.40333 20.5967 8 21.3333 8C22.07 8 22.6667 7.40333 22.6667 6.66667C22.6667 5.93 22.07 5.33333 21.3333 5.33333ZM26 5.33333C25.2633 5.33333 24.6667 5.93 24.6667 6.66667C24.6667 7.40333 25.2633 8 26 8C26.7367 8 27.3333 7.40333 27.3333 6.66667C27.3333 5.93 26.7367 5.33333 26 5.33333ZM15.3333 4C13.8607 4 12.6667 5.194 12.6667 6.66667C12.6667 8.13933 13.8607 9.33333 15.3333 9.33333C16.806 9.33333 18 8.13933 18 6.66667C18 5.194 16.806 4 15.3333 4ZM9.33333 20C8.59667 20 8 20.5967 8 21.3333C8 22.07 8.59667 22.6667 9.33333 22.6667C10.07 22.6667 10.6667 22.07 10.6667 21.3333C10.6667 20.5967 10.07 20 9.33333 20ZM20 20C19.2633 20 18.6667 20.5967 18.6667 21.3333C18.6667 22.07 19.2633 22.6667 20 22.6667C20.7367 22.6667 21.3333 22.07 21.3333 21.3333C21.3333 20.5967 20.7367 20 20 20ZM14.6667 19.3333C13.562 19.3333 12.6667 20.2287 12.6667 21.3333C12.6667 22.438 13.562 23.3333 14.6667 23.3333C15.7713 23.3333 16.6667 22.438 16.6667 21.3333C16.6667 20.2287 15.7713 19.3333 14.6667 19.3333ZM25.3333 18.6667C23.8607 18.6667 22.6667 19.8607 22.6667 21.3333C22.6667 22.806 23.8607 24 25.3333 24C26.806 24 28 22.806 28 21.3333C28 19.8607 26.806 18.6667 25.3333 18.6667ZM9.33333 12.6667C8.59667 12.6667 8 13.2633 8 14C8 14.7367 8.59667 15.3333 9.33333 15.3333C10.07 15.3333 10.6667 14.7367 10.6667 14C10.6667 13.2633 10.07 12.6667 9.33333 12.6667ZM26 12.6667C25.2633 12.6667 24.6667 13.2633 24.6667 14C24.6667 14.7367 25.2633 15.3333 26 15.3333C26.7367 15.3333 27.3333 14.7367 27.3333 14C27.3333 13.2633 26.7367 12.6667 26 12.6667ZM21.3333 12C20.2287 12 19.3333 12.8953 19.3333 14C19.3333 15.1047 20.2287 16 21.3333 16C22.438 16 23.3333 15.1047 23.3333 14C23.3333 12.8953 22.438 12 21.3333 12Z" fill="#FFDD64"/>
</svg>
