<svg width="32" height="32" viewBox="0 0 32 32" fill="none" xmlns="http://www.w3.org/2000/svg">
<path d="M13.3333 2.66663C7.44263 2.66663 2.66663 7.44263 2.66663 13.3333C2.66663 19.224 7.44263 24 13.3333 24C19.224 24 24 19.224 24 13.3333C24 7.44263 19.224 2.66663 13.3333 2.66663Z" fill="#FFDD64"/>
<path d="M22.1567 19.3286C21.4 20.4399 20.4393 21.4006 19.328 22.1573L26.9187 29.7479L29.7473 26.9193L22.1567 19.3286Z" fill="#FB348C"/>
<path d="M28 10.6666H22.6666V13.3333H28V10.6666Z" fill="#FB348C"/>
<path d="M18.026 10.6667L16.154 13.006L12.148 6.35669L7.30396 12H2.74929C2.69463 12.4367 2.66663 12.882 2.66663 13.3334C2.66663 13.7847 2.69463 14.23 2.74929 14.6667H8.52929L11.768 10.8934L15.8453 17.6607L19.3073 13.3334H24C24 12.4127 23.8833 11.5194 23.664 10.6667H18.026Z" fill="#D72573"/>
</svg>
