<svg width="16" height="16" viewBox="0 0 16 16" fill="none" xmlns="http://www.w3.org/2000/svg">
<path d="M6.5 11H4.5C3.70435 11 2.94129 10.6839 2.37868 10.1213C1.81607 9.55871 1.5 8.79565 1.5 8C1.5 7.20435 1.81607 6.44129 2.37868 5.87868C2.94129 5.31607 3.70435 5 4.5 5H6.5M9.5 5H11.5C12.2956 5 13.0587 5.31607 13.6213 5.87868C14.1839 6.44129 14.5 7.20435 14.5 8C14.5 8.79565 14.1839 9.55871 13.6213 10.1213C13.0587 10.6839 12.2956 11 11.5 11H9.5M5.10281 8H10.9597" stroke="#6B6978" stroke-width="1.5" stroke-linecap="round" stroke-linejoin="round"/>
</svg>
