<svg width="16" height="16" viewBox="0 0 16 16" fill="none" xmlns="http://www.w3.org/2000/svg">
<path d="M10.5 6.48438V3.51562C10.5 2.85258 10.2366 2.2167 9.76777 1.74786C9.29893 1.27902 8.66304 1.01563 8 1.01562C7.33696 1.01563 6.70107 1.27902 6.23223 1.74786C5.76339 2.2167 5.5 2.85258 5.5 3.51562V6.48438" stroke="#6B6978" stroke-width="1.5" stroke-linecap="round" stroke-linejoin="round"/>
<path d="M11.5 6.48438H4.5C3.67157 6.48438 3 7.15595 3 7.98438V13.4844C3 14.3128 3.67157 14.9844 4.5 14.9844H11.5C12.3284 14.9844 13 14.3128 13 13.4844V7.98438C13 7.15595 12.3284 6.48438 11.5 6.48438Z" stroke="#6B6978" stroke-width="1.5" stroke-linecap="round" stroke-linejoin="round"/>
</svg>
